# xmcd
#
# Track frame offsets: 
#        150
#        28947
#        59490
#        75875
#        109826
#        207843
#        233727
#        251235
#        305354
#        316245
#
# Disc length: 4592 seconds
#
# Revision: 2
# Processed by: cddbd v1.5.2PL0 Copyright (c) Steve Scherf et al.
# Submitted via: ExactAudioCopy v1.3
#
DISCID=7f11ee0a
DTITLE=Royal Concertgebouw Orchestra - RCO 125 anniversary edition - Th
DTITLE=e Radio Legacy, CD 116 [1990-2000]
DYEAR=2013
DGENRE=Classical
TTITLE0=Igor Stravinsky: Suite de concierto (Divertimento) de Le baise
TTITLE0=r de la fée (1934 - rev. 1949) - I. Sinfonia
TTITLE1=Igor Stravinsky: Suite de concierto (Divertimento) de Le baise
TTITLE1=r de la fée (1934 - rev. 1949) - II. Danses suisses
TTITLE2=Igor Stravinsky: Suite de concierto (Divertimento) de Le baise
TTITLE2=r de la fée (1934 - rev. 1949) - III. Scherzo (Au moulin)
TTITLE3=Igor Stravinsky: Suite de concierto (Divertimento) de Le baise
TTITLE3=r de la fée (1934 - rev. 1949) - IV. Pas de deux.  Adagio -  Va
TTITLE3=riación - Coda
TTITLE4=Morton Feldman: Coptic light (1986)
TTITLE5=Luciano Berio: Sinfonia (1968-1969) - I. 
TTITLE6=Luciano Berio: Sinfonia (1968-1969) - II. O King
TTITLE7=Luciano Berio: Sinfonia (1968-1969) - III. Im ruhig fliessende
TTITLE7=r Bewegung
TTITLE8=Luciano Berio: Sinfonia (1968-1969) - IV. 2:25
TTITLE9=Luciano Berio: Sinfonia (1968-1969) - V. 
EXTD=
EXTT0=
EXTT1=
EXTT2=
EXTT3=
EXTT4=
EXTT5=
EXTT6=
EXTT7=
EXTT8=
EXTT9=
PLAYORDER=
